<svg width="642" height="20" viewBox="0 0 642 20" fill="none" xmlns="http://www.w3.org/2000/svg">
<path d="M6.25781 15H4V6.29688L1.30469 7.13281V5.29688L6.01562 3.60938H6.25781V15ZM10.1719 13.8906C10.1719 13.5312 10.2917 13.2396 10.5312 13.0156C10.776 12.7917 11.0807 12.6797 11.4453 12.6797C11.8151 12.6797 12.1198 12.7917 12.3594 13.0156C12.6042 13.2396 12.7266 13.5312 12.7266 13.8906C12.7266 14.2448 12.6068 14.5339 12.3672 14.7578C12.1276 14.9766 11.8203 15.0859 11.4453 15.0859C11.0755 15.0859 10.7708 14.9766 10.5312 14.7578C10.2917 14.5339 10.1719 14.2448 10.1719 13.8906ZM21.2969 10.7188H22.5859V12.5391H21.2969V15H19.0391V12.5391H14.375L14.2734 11.1172L19.0156 3.625H21.2969V10.7188ZM16.5234 10.7188H19.0391V6.70312L18.8906 6.96094L16.5234 10.7188ZM24.1406 9.40625L24.7969 3.625H31.1719V5.50781H26.6484L26.3672 7.95312C26.9036 7.66667 27.474 7.52344 28.0781 7.52344C29.1615 7.52344 30.0104 7.85938 30.625 8.53125C31.2396 9.20312 31.5469 10.1432 31.5469 11.3516C31.5469 12.0859 31.3906 12.7448 31.0781 13.3281C30.7708 13.9062 30.3281 14.3568 29.75 14.6797C29.1719 14.9974 28.4896 15.1562 27.7031 15.1562C27.0156 15.1562 26.3776 15.0182 25.7891 14.7422C25.2005 14.4609 24.7344 14.0677 24.3906 13.5625C24.0521 13.0573 23.8724 12.4818 23.8516 11.8359H26.0859C26.1328 12.3099 26.2969 12.6797 26.5781 12.9453C26.8646 13.2057 27.237 13.3359 27.6953 13.3359C28.2057 13.3359 28.599 13.1536 28.875 12.7891C29.151 12.4193 29.2891 11.8984 29.2891 11.2266C29.2891 10.5807 29.1302 10.0859 28.8125 9.74219C28.4948 9.39844 28.0443 9.22656 27.4609 9.22656C26.9245 9.22656 26.4896 9.36719 26.1562 9.64844L25.9375 9.85156L24.1406 9.40625Z" fill="#CCC3C3"/>
<path d="M612.07 8.3125H613.273C613.846 8.3125 614.271 8.16927 614.547 7.88281C614.823 7.59635 614.961 7.21615 614.961 6.74219C614.961 6.28385 614.823 5.92708 614.547 5.67188C614.276 5.41667 613.901 5.28906 613.422 5.28906C612.99 5.28906 612.628 5.40885 612.336 5.64844C612.044 5.88281 611.898 6.1901 611.898 6.57031H609.641C609.641 5.97656 609.799 5.44531 610.117 4.97656C610.44 4.5026 610.888 4.13281 611.461 3.86719C612.039 3.60156 612.674 3.46875 613.367 3.46875C614.57 3.46875 615.513 3.75781 616.195 4.33594C616.878 4.90885 617.219 5.70052 617.219 6.71094C617.219 7.23177 617.06 7.71094 616.742 8.14844C616.424 8.58594 616.008 8.92188 615.492 9.15625C616.133 9.38542 616.609 9.72917 616.922 10.1875C617.24 10.6458 617.398 11.1875 617.398 11.8125C617.398 12.8229 617.029 13.6328 616.289 14.2422C615.555 14.8516 614.581 15.1562 613.367 15.1562C612.232 15.1562 611.302 14.8568 610.578 14.2578C609.859 13.6589 609.5 12.8672 609.5 11.8828H611.758C611.758 12.3099 611.917 12.6589 612.234 12.9297C612.557 13.2005 612.953 13.3359 613.422 13.3359C613.958 13.3359 614.378 13.1953 614.68 12.9141C614.987 12.6276 615.141 12.25 615.141 11.7812C615.141 10.6458 614.516 10.0781 613.266 10.0781H612.07V8.3125ZM619.172 13.8906C619.172 13.5312 619.292 13.2396 619.531 13.0156C619.776 12.7917 620.081 12.6797 620.445 12.6797C620.815 12.6797 621.12 12.7917 621.359 13.0156C621.604 13.2396 621.727 13.5312 621.727 13.8906C621.727 14.2448 621.607 14.5339 621.367 14.7578C621.128 14.9766 620.82 15.0859 620.445 15.0859C620.076 15.0859 619.771 14.9766 619.531 14.7578C619.292 14.5339 619.172 14.2448 619.172 13.8906ZM625.914 8.3125H627.117C627.69 8.3125 628.115 8.16927 628.391 7.88281C628.667 7.59635 628.805 7.21615 628.805 6.74219C628.805 6.28385 628.667 5.92708 628.391 5.67188C628.12 5.41667 627.745 5.28906 627.266 5.28906C626.833 5.28906 626.471 5.40885 626.18 5.64844C625.888 5.88281 625.742 6.1901 625.742 6.57031H623.484C623.484 5.97656 623.643 5.44531 623.961 4.97656C624.284 4.5026 624.732 4.13281 625.305 3.86719C625.883 3.60156 626.518 3.46875 627.211 3.46875C628.414 3.46875 629.357 3.75781 630.039 4.33594C630.721 4.90885 631.062 5.70052 631.062 6.71094C631.062 7.23177 630.904 7.71094 630.586 8.14844C630.268 8.58594 629.852 8.92188 629.336 9.15625C629.977 9.38542 630.453 9.72917 630.766 10.1875C631.083 10.6458 631.242 11.1875 631.242 11.8125C631.242 12.8229 630.872 13.6328 630.133 14.2422C629.398 14.8516 628.424 15.1562 627.211 15.1562C626.076 15.1562 625.146 14.8568 624.422 14.2578C623.703 13.6589 623.344 12.8672 623.344 11.8828H625.602C625.602 12.3099 625.76 12.6589 626.078 12.9297C626.401 13.2005 626.797 13.3359 627.266 13.3359C627.802 13.3359 628.221 13.1953 628.523 12.9141C628.831 12.6276 628.984 12.25 628.984 11.7812C628.984 10.6458 628.359 10.0781 627.109 10.0781H625.914V8.3125ZM639.484 10.7188H640.773V12.5391H639.484V15H637.227V12.5391H632.562L632.461 11.1172L637.203 3.625H639.484V10.7188ZM634.711 10.7188H637.227V6.70312L637.078 6.96094L634.711 10.7188Z" fill="#CCC3C3"/>
<line x1="41.0017" y1="10" x2="601.001" y2="10.4734" stroke="#CCC3C3" stroke-width="4"/>
<circle cx="260.5" cy="9.5" r="5.5" fill="#E5007B"/>
<line x1="41" y1="10" x2="259" y2="10" stroke="#E5007B" stroke-width="4"/>
</svg>
